HIERARCHY
ROOT hips
{
  OFFSET 0 10.6860622 2.3727825e-15
  CHANNELS 6 Xposition Yposition Zposition Yrotation Xrotation Zrotation
  JOINT leftUpperLeg
  {
    OFFSET 0.6642549969 -0.9402397400000004 0
    CHANNELS 3 Yrotation Xrotation Zrotation
    JOINT leftLowerLeg
    {
      OFFSET 0 -3.997221335632195 0
      CHANNELS 3 Yrotation Xrotation Zrotation
      JOINT leftFoot
      {
        OFFSET -0.13777839790000004 -4.6145792000000005 -0.22186036399999998
        CHANNELS 3 Yrotation Xrotation Zrotation
        JOINT leftToes
        {
          OFFSET -0.03777410834999995 -0.9130806927000008 0.85230013
          CHANNELS 3 Yrotation Xrotation Zrotation
          End Site
          {
            OFFSET -0.03777410834999995 -0.9130806927000008 0.85230013
          }
        }
      }
    }
  }
  JOINT rightUpperLeg
  {
    OFFSET -0.6642778626 -0.9402397400000004 0
    CHANNELS 3 Yrotation Xrotation Zrotation
    JOINT rightLowerLeg
    {
      OFFSET 0 -3.997221452859387 0
      CHANNELS 3 Yrotation Xrotation Zrotation
      JOINT rightFoot
      {
        OFFSET 0.1377926176 -4.6145792000000005 -0.22185782299999995
        CHANNELS 3 Yrotation Xrotation Zrotation
        JOINT rightToes
        {
          OFFSET 0.037780746850000047 -0.9130806927000008 0.85230167
          CHANNELS 3 Yrotation Xrotation Zrotation
          End Site
          {
            OFFSET 0.037780746850000047 -0.9130806927000008 0.85230167
          }
        }
      }
    }
  }
  JOINT spine
  {
    OFFSET 0 0.13988381660000015 0
    CHANNELS 3 Yrotation Xrotation Zrotation
    JOINT chest
    {
      OFFSET 0 0.6191039003973773 0
      CHANNELS 3 Yrotation Xrotation Zrotation
      JOINT upperChest
      {
        OFFSET 0 0.9855186130586943 0
        CHANNELS 3 Yrotation Xrotation Zrotation
        JOINT leftShoulder
        {
          OFFSET 0.1807663869 1.5087829790000005 0
          CHANNELS 3 Yrotation Xrotation Zrotation
          JOINT leftUpperArm
          {
            OFFSET 0.5985063006419806 0 0
            CHANNELS 3 Yrotation Xrotation Zrotation
            JOINT leftLowerArm
            {
              OFFSET 2.2993332369501065 0 0
              CHANNELS 3 Yrotation Xrotation Zrotation
              JOINT leftHand
              {
                OFFSET 2.395047042602395 0 0
                CHANNELS 3 Yrotation Xrotation Zrotation
                JOINT leftIndexProximal
                {
                  OFFSET 0.5766295810000004 0.04556643899499946 0.17265095988184
                  CHANNELS 3 Yrotation Xrotation Zrotation
                  JOINT leftIndexIntermediate
                  {
                    OFFSET 0.2957229000000008 -0.019352197700001517 -0.007932640616999987
                    CHANNELS 3 Yrotation Xrotation Zrotation
                    JOINT leftIndexDistal
                    {
                      OFFSET 0.19008243099999922 -0.012484908149998475 -0.002786250786000012
                      CHANNELS 3 Yrotation Xrotation Zrotation
                      End Site
                      {
                        OFFSET 0.19008243099999922 -0.012484908149998475 -0.002786250786000012
                      }
                    }
                  }
                }
                JOINT leftMiddleProximal
                {
                  OFFSET 0.5834975091000001 0.0524350405149987 0.02204081888183999
                  CHANNELS 3 Yrotation Xrotation Zrotation
                  JOINT leftMiddleIntermediate
                  {
                    OFFSET 0.33880573540000003 -0.019871473270000717 -0.00000971183179999946
                    CHANNELS 3 Yrotation Xrotation Zrotation
                    JOINT leftMiddleDistal
                    {
                      OFFSET 0.20676022730000088 -0.012221336379999448 0.0001471936708000235
                      CHANNELS 3 Yrotation Xrotation Zrotation
                      End Site
                      {
                        OFFSET 0.20676022730000088 -0.012221336379999448 0.0001471936708000235
                      }
                    }
                  }
                }
                JOINT leftLittleProximal
                {
                  OFFSET 0.5344154683999995 -0.012880921405001189 -0.24414037221816004
                  CHANNELS 3 Yrotation Xrotation Zrotation
                  JOINT leftLittleIntermediate
                  {
                    OFFSET 0.21758961730000093 -0.011650919939999227 0.011893592810000034
                    CHANNELS 3 Yrotation Xrotation Zrotation
                    JOINT leftLittleDistal
                    {
                      OFFSET 0.1475273964999999 -0.008152365682999818 0.006001092492999946
                      CHANNELS 3 Yrotation Xrotation Zrotation
                      End Site
                      {
                        OFFSET 0.1475273964999999 -0.008152365682999818 0.006001092492999946
                      }
                    }
                  }
                }
                JOINT leftRingProximal
                {
                  OFFSET 0.5799399463000003 0.026911854694997794 -0.12150566991816003
                  CHANNELS 3 Yrotation Xrotation Zrotation
                  JOINT leftRingIntermediate
                  {
                    OFFSET 0.26167887460000006 -0.013480186499999602 0.010996293000000053
                    CHANNELS 3 Yrotation Xrotation Zrotation
                    JOINT leftRingDistal
                    {
                      OFFSET 0.17667108799999987 -0.008990287899999228 0.0055541023999999065
                      CHANNELS 3 Yrotation Xrotation Zrotation
                      End Site
                      {
                        OFFSET 0.17667108799999987 -0.008990287899999228 0.0055541023999999065
                      }
                    }
                  }
                }
                JOINT leftThumbProximal
                {
                  OFFSET 0.11018806699999972 -0.09448718900500053 0.17047963138184
                  CHANNELS 3 Yrotation Xrotation Zrotation
                  JOINT leftThumbIntermediate
                  {
                    OFFSET 0.31062601459999983 -0.08126270900000132 0.15443142000000007
                    CHANNELS 3 Yrotation Xrotation Zrotation
                    JOINT leftThumbDistal
                    {
                      OFFSET 0.21627175790000086 -0.08833193599999878 0.018771167799999988
                      CHANNELS 3 Yrotation Xrotation Zrotation
                      End Site
                      {
                        OFFSET 0.21627175790000086 -0.08833193599999878 0.018771167799999988
                      }
                    }
                  }
                }
              }
            }
          }
        }
        JOINT neck
        {
          OFFSET 0 1.5463305265074576 0
          CHANNELS 3 Yrotation Xrotation Zrotation
          JOINT head
          {
            OFFSET 0 0.8456443600000344 0
            CHANNELS 3 Yrotation Xrotation Zrotation
            JOINT leftEye
            {
              OFFSET 0.30408573140000006 0.5104519199999995 0.1276382305
              CHANNELS 3 Yrotation Xrotation Zrotation
              End Site
              {
                OFFSET 0.30408573140000006 0.5104519199999995 0.1276382305
              }
            }
            JOINT rightEye
            {
              OFFSET -0.30409491089999996 0.5104519199999995 0.1276379445
              CHANNELS 3 Yrotation Xrotation Zrotation
              End Site
              {
                OFFSET -0.30409491089999996 0.5104519199999995 0.1276379445
              }
            }
            JOINT jaw
            {
              OFFSET -3.155239131000001e-7 -0.11984121820000082 0.60178107
              CHANNELS 3 Yrotation Xrotation Zrotation
              End Site
              {
                OFFSET -3.155239131000001e-7 -0.11984121820000082 0.60178107
              }
            }
          }
        }
        JOINT rightShoulder
        {
          OFFSET -0.1807303465 1.5087829790000005 0
          CHANNELS 3 Yrotation Xrotation Zrotation
          JOINT rightUpperArm
          {
            OFFSET -0.5985063796536958 0 0
            CHANNELS 3 Yrotation Xrotation Zrotation
            JOINT rightLowerArm
            {
              OFFSET -2.2993322059002854 0 0
              CHANNELS 3 Yrotation Xrotation Zrotation
              JOINT rightHand
              {
                OFFSET -2.395045314457259 0 0
                CHANNELS 3 Yrotation Xrotation Zrotation
                JOINT rightIndexProximal
                {
                  OFFSET -0.5764487688300002 0.0441371204405987 0.17361932004999997
                  CHANNELS 3 Yrotation Xrotation Zrotation
                  JOINT rightIndexIntermediate
                  {
                    OFFSET -0.29573011380000047 -0.01934826376999843 -0.007698921482999974
                    CHANNELS 3 Yrotation Xrotation Zrotation
                    JOINT rightIndexDistal
                    {
                      OFFSET -0.19008373999999884 -0.012503266380000655 -0.0026365778999999897
                      CHANNELS 3 Yrotation Xrotation Zrotation
                      End Site
                      {
                        OFFSET -0.19008373999999884 -0.012503266380000655 -0.0026365778999999897
                      }
                    }
                  }
                }
                JOINT rightMiddleProximal
                {
                  OFFSET -0.5834852037300005 0.05211639405060153 0.02307162440000001
                  CHANNELS 3 Yrotation Xrotation Zrotation
                  JOINT rightMiddleIntermediate
                  {
                    OFFSET -0.33880114510000003 -0.019952774050000954 0.0002455003561999819
                    CHANNELS 3 Yrotation Xrotation Zrotation
                    JOINT rightMiddleDistal
                    {
                      OFFSET -0.20675694929999955 -0.012273788999999091 0.00030209124000002766
                      CHANNELS 3 Yrotation Xrotation Zrotation
                      End Site
                      {
                        OFFSET -0.20675694929999955 -0.012273788999999091 0.00030209124000002766
                      }
                    }
                  }
                }
                JOINT rightLittleProximal
                {
                  OFFSET -0.5346811737299992 -0.011214256288399227 -0.24363941305000003
                  CHANNELS 3 Yrotation Xrotation Zrotation
                  JOINT rightLittleIntermediate
                  {
                    OFFSET -0.21757715980000092 -0.011771559690000988 0.01201554387
                    CHANNELS 3 Yrotation Xrotation Zrotation
                    JOINT rightLittleDistal
                    {
                      OFFSET -0.1475201849000004 -0.00822055339600003 0.006082065407000015
                      CHANNELS 3 Yrotation Xrotation Zrotation
                      End Site
                      {
                        OFFSET -0.1475201849000004 -0.00822055339600003 0.006082065407000015
                      }
                    }
                  }
                }
                JOINT rightRingProximal
                {
                  OFFSET -0.5800810755299999 0.027657985680600072 -0.12066365025000003
                  CHANNELS 3 Yrotation Xrotation Zrotation
                  JOINT rightRingIntermediate
                  {
                    OFFSET -0.26166445029999974 -0.013623118409999302 0.011164098990000045
                    CHANNELS 3 Yrotation Xrotation Zrotation
                    JOINT rightRingDistal
                    {
                      OFFSET -0.17666387530000027 -0.009072900100000503 0.005668185599999959
                      CHANNELS 3 Yrotation Xrotation Zrotation
                      End Site
                      {
                        OFFSET -0.17666387530000027 -0.009072900100000503 0.005668185599999959
                      }
                    }
                  }
                }
                JOINT rightThumbProximal
                {
                  OFFSET -0.10997596379000074 -0.09577489355940072 0.16989765924999997
                  CHANNELS 3 Yrotation Xrotation Zrotation
                  JOINT rightThumbIntermediate
                  {
                    OFFSET -0.31036620999999986 -0.08229339117999834 0.15440884469999996
                    CHANNELS 3 Yrotation Xrotation Zrotation
                    JOINT rightThumbDistal
                    {
                      OFFSET -0.21631306399999906 -0.08825326400000111 0.018656797720000014
                      CHANNELS 3 Yrotation Xrotation Zrotation
                      End Site
                      {
                        OFFSET -0.21631306399999906 -0.08825326400000111 0.018656797720000014
                      }
                    }
                  }
                }
              }
            }
          }
        }
      }
    }
  }
}
MOTION
Frames: 7
Frame Time: 0.03333333333333333
0 -6.5115185726109885 8.096470213929686 -90.40133499766667 89.73312138885133 89.3438999499025 -49.733904678769406 -64.31740293874984 75.95601525318835 56.15674916194933 80.80232127793344 39.68526961888699 5.487289320894962 42.34408608291465 10.262597995101522 0 0 0 58.86883909418875 -64.19503748130451 -88.85485032924808 -55.89565017708152 80.81132053800249 -39.48962760557765 -5.584678016726812 42.93631788470279 -10.403156789901669 0 0 0 -0.43088366484450485 -12.681080919122172 -0.2929983869479372 -1.1874023998836083 46.82215939707971 -1.9354481175650562 0 0 0 -20.298824250030336 -28.436942671186674 34.89102450852913 -39.797549281743386 -38.47241983231111 -29.11503101253399 -143.88548076534065 -33.54189369377752 93.76454513936882 -14.72183264979294 -13.616619015266682 -39.93320884809193 0 0 0 0 0 0 0 0 0 0 0 0 0 0 0 0 0 0 0 0 0 0 0 0 0 0 0 0 0 0 0 0 0 0 0 0 0 0 0 0 0 0 0 0 0 0 10.519078224446352 0 0 -56.00035161135313 0 0 0 0 0 0 0 0 0 0 19.359699800043668 -28.818556159695284 -34.40182686219511 39.99704358354793 -38.354618082871085 29.331614618204924 143.81417855593205 -33.35406857287334 -93.50635968799284 14.700745681217988 -13.419439768523867 39.70499150581896 0 0 0 0 0 0 0 0 0 0 0 0 0 0 0 0 0 0 0 0 0 0 0 0 0 0 0 0 0 0 0 0 0 0 0 0 0 0 0 0 0 0 0 0 0
0 -6.5115185726109885 8.096470213929686 -90.40133499766667 89.73312138885133 89.3438999499025 -49.733904678769406 -64.31740293874984 75.95601525318835 56.15674916194933 80.80232127793344 39.68526961888699 5.487289320894962 42.34408608291465 10.262597995101522 0 0 0 58.86883909418875 -64.19503748130451 -88.85485032924808 -55.89565017708152 80.81132053800249 -39.48962760557765 -5.584678016726812 42.93631788470279 -10.403156789901669 0 0 0 -0.43041113159479355 -12.359878110644633 -0.2955491854485307 -1.1820208205260687 46.572335917145125 -1.9278956206095055 0 0 0 -20.01908186993289 -28.712561516756914 34.76568353068742 -39.94127738826069 -38.477174640237514 -29.33178173510589 -143.89094718688787 -33.45475758095662 93.41144524791335 -14.647218876828052 -13.574990467532901 -39.747831151456225 0 0 0 0 0 0 0 0 0 0 0 0 0 0 0 0 0 0 0 0 0 0 0 0 0 0 0 0 0 0 0 0 0 0 0 0 0 0 0 0 0 0 0 0 0 0 10.519078224446352 0 0 -56.28651045788804 0 0 0 0 0 0 0 0 0 0 19.068021647908928 -29.09495538699884 -34.32612034979956 40.12057456223714 -38.3547617966687 29.56859309555954 143.82104488190615 -33.26810490046932 -93.16254429458078 14.656829001201569 -13.40838227507659 39.48310650236548 0 0 0 0 0 0 0 0 0 0 0 0 0 0 0 0 0 0 0 0 0 0 0 0 0 0 0 0 0 0 0 0 0 0 0 0 0 0 0 0 0 0 0 0 0
0 -6.5115185726109885 8.096470213929686 -90.40133499766667 89.73312138885133 89.3438999499025 -49.733904678769406 -64.31740293874984 75.95601525318835 56.15674916194933 80.80232127793344 39.68526961888699 5.487289320894962 42.34408608291465 10.262597995101522 0 0 0 58.86883909418875 -64.19503748130451 -88.85485032924808 -55.89565017708152 80.81132053800249 -39.48962760557765 -5.584678016726812 42.93631788470279 -10.403156789901669 0 0 0 -0.42995381253510506 -12.038673949484414 -0.2980941801075039 -1.1767115518792375 46.32251068006566 -1.9204114415945792 0 0 0 -19.73791018202519 -28.98763577602369 34.6384724720962 -40.08499402049031 -38.482357301857746 -29.54853471758387 -143.897052407234 -33.36764760410274 93.05868912884658 -14.572479816950043 -13.53359666438858 -39.562433060477474 0 0 0 0 0 0 0 0 0 0 0 0 0 0 0 0 0 0 0 0 0 0 0 0 0 0 0 0 0 0 0 0 0 0 0 0 0 0 0 0 0 0 0 0 0 0 10.519078224446352 0 0 -56.5726700000231 0 0 0 0 0 0 0 0 0 0 18.77513553835217 -29.371013096246216 -34.248595393078546 40.24409990272712 -38.355306169700825 29.805573612705835 143.82851905128618 -33.18217679754627 -92.81905429447309 14.612871146190763 -13.397489412351097 39.26122679053009 0 0 0 0 0 0 0 0 0 0 0 0 0 0 0 0 0 0 0 0 0 0 0 0 0 0 0 0 0 0 0 0 0 0 0 0 0 0 0 0 0 0 0 0 0
0 -6.5115185726109885 8.096470213929686 -90.40133499766667 89.73312138885133 89.3438999499025 -49.733904678769406 -64.31740293874984 75.95601525318835 56.15674916194933 80.80232127793344 39.68526961888699 5.487289320894962 42.34408608291465 10.262597995101522 0 0 0 58.86883909418875 -64.19503748130451 -88.85485032924808 -55.89565017708152 80.81132053800249 -39.48962760557765 -5.584678016726812 42.93631788470279 -10.403156789901669 0 0 0 -0.4290831073035684 -11.39602099810104 -0.30316902831295317 -1.1663018370944884 45.822743113568535 -1.9056396822704516 0 0 0 -19.17090675814155 -29.536399982948904 34.37825209282972 -40.37248358672343 -38.49398038298574 -29.982198006328098 -143.91112663915692 -33.19347637426698 92.35382810501984 -14.422603723200083 -13.451494281514089 -39.19147159934311 0 0 0 0 0 0 0 0 0 0 0 0 0 0 0 0 0 0 0 0 0 0 0 0 0 0 0 0 0 0 0 0 0 0 0 0 0 0 0 0 0 0 0 0 0 0 10.519078224446352 0 0 -57.14516506609792 0 0 0 0 0 0 0 0 0 0 18.185339532463317 -29.92236682292458 -34.087939229155225 40.491252914007795 -38.35760564654703 30.279713779535093 143.84524279510887 -33.01038538588323 -92.13269520529744 14.52481107523692 -13.376193100472413 38.81737188471318 0 0 0 0 0 0 0 0 0 0 0 0 0 0 0 0 0 0 0 0 0 0 0 0 0 0 0 0 0 0 0 0 0 0 0 0 0 0 0 0 0 0 0 0 0
0 -6.5115185726109885 8.096470213929686 -90.40133499766667 89.73312138885133 89.3438999499025 -49.733904678769406 -64.31740293874984 75.95601525318835 56.15674916194933 80.80232127793344 39.68526961888699 5.487289320894962 42.34408608291465 10.262597995101522 0 0 0 58.86883909418875 -64.19503748130451 -88.85485032924808 -55.89565017708152 80.81132053800249 -39.48962760557765 -5.584678016726812 42.93631788470279 -10.403156789901669 0 0 0 -0.4286706764501697 -11.074595237527936 -0.30569897410139657 -1.1611999577244034 45.57280705003518 -1.898351269144809 0 0 0 -18.88504474601015 -29.810038044349273 34.24520149198312 -40.51625291324678 -38.50043846056256 -30.1990978655463 -143.91911077999814 -33.10641462268866 92.00175813615158 -14.34746848714235 -13.410792445786198 -39.00594004849931 0 0 0 0 0 0 0 0 0 0 0 0 0 0 0 0 0 0 0 0 0 0 0 0 0 0 0 0 0 0 0 0 0 0 0 0 0 0 0 0 0 0 0 0 0 0 10.519078224446352 0 0 -57.43147977237359 0 0 0 0 0 0 0 0 0 0 17.888413397950693 -30.197620113305533 -34.00477928796759 40.61484947590222 -38.35934772308393 30.516865282958353 143.85448915893483 -32.92453783964091 -91.78985507412334 14.48071630441037 -13.365795750093067 38.595413779460145 0 0 0 0 0 0 0 0 0 0 0 0 0 0 0 0 0 0 0 0 0 0 0 0 0 0 0 0 0 0 0 0 0 0 0 0 0 0 0 0 0 0 0 0 0
0 -6.5115185726109885 8.096470213929686 -90.40133499766667 89.73312138885133 89.3438999499025 -49.733904678769406 -64.31740293874984 75.95601525318835 56.15674916194933 80.80232127793344 39.68526961888699 5.487289320894962 42.34408608291465 10.262597995101522 0 0 0 58.86883909418875 -64.19503748130451 -88.85485032924808 -55.89565017708152 80.81132053800249 -39.48962760557765 -5.584678016726812 42.93631788470279 -10.403156789901669 0 0 0 -0.4282731369151642 -10.753168337031683 -0.308223798028148 -1.1561661168653763 45.322875794232935 -1.8911266081261062 0 0 0 -18.59765958106275 -30.08309489520375 34.11020740467574 -40.66000001692814 -38.507320441288435 -30.415998097891233 -143.927724879543 -33.019394244518004 91.65002184987391 -14.272210631089056 -13.370326545735637 -38.820379355031704 0 0 0 0 0 0 0 0 0 0 0 0 0 0 0 0 0 0 0 0 0 0 0 0 0 0 0 0 0 0 0 0 0 0 0 0 0 0 0 0 0 0 0 0 0 0 10.519078224446352 0 0 -57.717794916359786 0 0 0 0 0 0 0 0 0 0 17.5901878785896 -30.47249799211471 -33.919730900942064 40.73844477682511 -38.36149053471819 30.754019731267526 143.86433675201874 -32.83873692208669 -91.44733026939065 14.436582451265608 -13.355565573989226 38.373458296272055 0 0 0 0 0 0 0 0 0 0 0 0 0 0 0 0 0 0 0 0 0 0 0 0 0 0 0 0 0 0 0 0 0 0 0 0 0 0 0 0 0 0 0 0 0
0 -6.5115185726109885 8.096470213929686 -90.40133499766667 89.73312138885133 89.3438999499025 -49.733904678769406 -64.31740293874984 75.95601525318835 56.15674916194933 80.80232127793344 39.68526961888699 5.487289320894962 42.34408608291465 10.262597995101522 0 0 0 58.86883909418875 -64.19503748130451 -88.85485032924808 -55.89565017708152 80.81132053800249 -39.48962760557765 -5.584678016726812 42.93631788470279 -10.403156789901669 0 0 0 -0.4275222944648071 -10.110151950167403 -0.3132607354510269 -1.1462949435710432 44.82293639489 -1.87686079941614 0 0 0 -18.018062965313376 -30.627615435713256 33.83424386486394 -40.94752017098824 -38.52240025722885 -30.849918370712167 -143.94681950495414 -32.845447863719244 90.94731180084166 -14.121317814994402 -13.290098488451745 -38.44913873924256 0 0 0 0 0 0 0 0 0 0 0 0 0 0 0 0 0 0 0 0 0 0 0 0 0 0 0 0 0 0 0 0 0 0 0 0 0 0 0 0 0 0 0 0 0 0 10.519078224446352 0 0 -58.2905531373515 0 0 0 0 0 0 0 0 0 0 16.989527408340273 -31.021265728344357 -33.74384038291572 40.98568717884977 -38.367013357937395 31.22846192937349 143.88591814462458 -32.66719252935157 -90.76302078957511 14.348185174437276 -13.335591742257572 37.9294709408984 0 0 0 0 0 0 0 0 0 0 0 0 0 0 0 0 0 0 0 0 0 0 0 0 0 0 0 0 0 0 0 0 0 0 0 0 0 0 0 0 0 0 0 0 0
